<mxfile host="app.diagrams.net" agent="Mozilla/5.0 (Windows NT 10.0; Win64; x64) AppleWebKit/537.36 (KHTML, like Gecko) Chrome/134.0.0.0 Safari/537.36" version="26.1.1">
  <diagram name="Página-1" id="ns3tSC-i1UUYCvkixkdD">
    <mxGraphModel dx="1000" dy="481" grid="1" gridSize="10" guides="1" tooltips="1" connect="1" arrows="1" fold="1" page="1" pageScale="1" pageWidth="827" pageHeight="1169" math="0" shadow="0">
      <root>
        <mxCell id="0" />
        <mxCell id="1" parent="0" />
        <mxCell id="0gm10YyM9fv4uz2o-prk-2" value="Login" style="ellipse;whiteSpace=wrap;html=1;" vertex="1" parent="1">
          <mxGeometry x="240" y="40" width="120" height="80" as="geometry" />
        </mxCell>
        <mxCell id="0gm10YyM9fv4uz2o-prk-3" value="Cadastrar" style="ellipse;whiteSpace=wrap;html=1;" vertex="1" parent="1">
          <mxGeometry x="240" y="160" width="120" height="80" as="geometry" />
        </mxCell>
        <mxCell id="0gm10YyM9fv4uz2o-prk-4" value="" style="endArrow=none;html=1;rounded=0;" edge="1" parent="1">
          <mxGeometry width="50" height="50" relative="1" as="geometry">
            <mxPoint x="20" y="10" as="sourcePoint" />
            <mxPoint x="540" y="10" as="targetPoint" />
          </mxGeometry>
        </mxCell>
        <mxCell id="0gm10YyM9fv4uz2o-prk-5" value="" style="endArrow=none;html=1;rounded=0;" edge="1" parent="1">
          <mxGeometry width="50" height="50" relative="1" as="geometry">
            <mxPoint x="20" y="290" as="sourcePoint" />
            <mxPoint x="540" y="290" as="targetPoint" />
          </mxGeometry>
        </mxCell>
        <mxCell id="0gm10YyM9fv4uz2o-prk-7" value="Usuário" style="shape=umlActor;verticalLabelPosition=bottom;verticalAlign=top;html=1;outlineConnect=0;" vertex="1" parent="1">
          <mxGeometry x="60" y="90" width="80" height="120" as="geometry" />
        </mxCell>
        <mxCell id="0gm10YyM9fv4uz2o-prk-11" value="Pagina Inicial" style="text;html=1;align=center;verticalAlign=middle;whiteSpace=wrap;rounded=0;fontSize=30;" vertex="1" parent="1">
          <mxGeometry x="40" y="20" width="200" height="30" as="geometry" />
        </mxCell>
        <mxCell id="0gm10YyM9fv4uz2o-prk-14" value="" style="endArrow=none;html=1;rounded=0;" edge="1" parent="1">
          <mxGeometry width="50" height="50" relative="1" as="geometry">
            <mxPoint x="20" y="290" as="sourcePoint" />
            <mxPoint x="20" y="10" as="targetPoint" />
          </mxGeometry>
        </mxCell>
        <mxCell id="0gm10YyM9fv4uz2o-prk-15" value="" style="endArrow=none;html=1;rounded=0;" edge="1" parent="1">
          <mxGeometry width="50" height="50" relative="1" as="geometry">
            <mxPoint x="540" y="290" as="sourcePoint" />
            <mxPoint x="540" y="10" as="targetPoint" />
          </mxGeometry>
        </mxCell>
        <mxCell id="0gm10YyM9fv4uz2o-prk-18" value="" style="curved=1;endArrow=classic;html=1;rounded=0;" edge="1" parent="1">
          <mxGeometry width="50" height="50" relative="1" as="geometry">
            <mxPoint x="550" y="160" as="sourcePoint" />
            <mxPoint x="550" y="440" as="targetPoint" />
            <Array as="points">
              <mxPoint x="600" y="160" />
              <mxPoint x="660" y="190" />
              <mxPoint x="680" y="220" />
              <mxPoint x="690" y="350" />
              <mxPoint x="650" y="410" />
            </Array>
          </mxGeometry>
        </mxCell>
        <mxCell id="0gm10YyM9fv4uz2o-prk-22" value="" style="endArrow=classic;html=1;rounded=0;" edge="1" parent="1">
          <mxGeometry width="50" height="50" relative="1" as="geometry">
            <mxPoint x="160" y="130" as="sourcePoint" />
            <mxPoint x="230" y="100" as="targetPoint" />
          </mxGeometry>
        </mxCell>
        <mxCell id="0gm10YyM9fv4uz2o-prk-23" value="" style="endArrow=classic;html=1;rounded=0;" edge="1" parent="1">
          <mxGeometry width="50" height="50" relative="1" as="geometry">
            <mxPoint x="160" y="165" as="sourcePoint" />
            <mxPoint x="230" y="190" as="targetPoint" />
          </mxGeometry>
        </mxCell>
        <mxCell id="0gm10YyM9fv4uz2o-prk-24" value="" style="endArrow=classic;html=1;rounded=0;" edge="1" parent="1" target="0gm10YyM9fv4uz2o-prk-26">
          <mxGeometry width="50" height="50" relative="1" as="geometry">
            <mxPoint x="370" y="90" as="sourcePoint" />
            <mxPoint x="410" y="90" as="targetPoint" />
          </mxGeometry>
        </mxCell>
        <mxCell id="0gm10YyM9fv4uz2o-prk-25" value="Termos de Serviços" style="rounded=0;whiteSpace=wrap;html=1;" vertex="1" parent="1">
          <mxGeometry x="414" y="100" width="116" height="30" as="geometry" />
        </mxCell>
        <mxCell id="0gm10YyM9fv4uz2o-prk-26" value="" style="ellipse;whiteSpace=wrap;html=1;aspect=fixed;" vertex="1" parent="1">
          <mxGeometry x="390" y="110" width="10" height="10" as="geometry" />
        </mxCell>
        <mxCell id="0gm10YyM9fv4uz2o-prk-29" value="Usuário" style="shape=umlActor;verticalLabelPosition=bottom;verticalAlign=top;html=1;outlineConnect=0;" vertex="1" parent="1">
          <mxGeometry x="60" y="420" width="80" height="120" as="geometry" />
        </mxCell>
        <mxCell id="0gm10YyM9fv4uz2o-prk-30" value="" style="endArrow=none;html=1;rounded=0;" edge="1" parent="1">
          <mxGeometry width="50" height="50" relative="1" as="geometry">
            <mxPoint x="20" y="320" as="sourcePoint" />
            <mxPoint x="540" y="320" as="targetPoint" />
          </mxGeometry>
        </mxCell>
        <mxCell id="0gm10YyM9fv4uz2o-prk-32" value="Bliblioteca" style="ellipse;whiteSpace=wrap;html=1;" vertex="1" parent="1">
          <mxGeometry x="280" y="370" width="90" height="50" as="geometry" />
        </mxCell>
        <mxCell id="0gm10YyM9fv4uz2o-prk-33" value="Loja" style="ellipse;whiteSpace=wrap;html=1;" vertex="1" parent="1">
          <mxGeometry x="170" y="370" width="90" height="50" as="geometry" />
        </mxCell>
        <mxCell id="0gm10YyM9fv4uz2o-prk-34" value="Estudio" style="ellipse;whiteSpace=wrap;html=1;" vertex="1" parent="1">
          <mxGeometry x="390" y="370" width="90" height="50" as="geometry" />
        </mxCell>
        <mxCell id="0gm10YyM9fv4uz2o-prk-35" value="" style="endArrow=classic;html=1;rounded=0;" edge="1" parent="1" target="0gm10YyM9fv4uz2o-prk-33">
          <mxGeometry width="50" height="50" relative="1" as="geometry">
            <mxPoint x="150" y="450" as="sourcePoint" />
            <mxPoint x="210" y="430" as="targetPoint" />
          </mxGeometry>
        </mxCell>
        <mxCell id="0gm10YyM9fv4uz2o-prk-36" value="" style="endArrow=classic;html=1;rounded=0;entryX=0;entryY=1;entryDx=0;entryDy=0;" edge="1" parent="1" target="0gm10YyM9fv4uz2o-prk-32">
          <mxGeometry width="50" height="50" relative="1" as="geometry">
            <mxPoint x="150" y="484" as="sourcePoint" />
            <mxPoint x="190" y="450" as="targetPoint" />
          </mxGeometry>
        </mxCell>
        <mxCell id="0gm10YyM9fv4uz2o-prk-37" value="" style="endArrow=classic;html=1;rounded=0;entryX=0.07;entryY=0.7;entryDx=0;entryDy=0;entryPerimeter=0;" edge="1" parent="1" target="0gm10YyM9fv4uz2o-prk-34">
          <mxGeometry width="50" height="50" relative="1" as="geometry">
            <mxPoint x="150" y="501" as="sourcePoint" />
            <mxPoint x="293" y="430" as="targetPoint" />
          </mxGeometry>
        </mxCell>
        <mxCell id="0gm10YyM9fv4uz2o-prk-38" value="Plataforma" style="text;html=1;align=center;verticalAlign=middle;whiteSpace=wrap;rounded=0;fontSize=30;" vertex="1" parent="1">
          <mxGeometry x="50" y="329" width="210" height="30" as="geometry" />
        </mxCell>
        <mxCell id="0gm10YyM9fv4uz2o-prk-39" value="" style="endArrow=none;html=1;rounded=0;" edge="1" parent="1">
          <mxGeometry width="50" height="50" relative="1" as="geometry">
            <mxPoint x="20" y="640" as="sourcePoint" />
            <mxPoint x="540" y="640" as="targetPoint" />
          </mxGeometry>
        </mxCell>
        <mxCell id="0gm10YyM9fv4uz2o-prk-40" value="Sistema de&amp;nbsp;&lt;div&gt;autenticação&lt;/div&gt;" style="shape=umlActor;verticalLabelPosition=bottom;verticalAlign=top;html=1;outlineConnect=0;" vertex="1" parent="1">
          <mxGeometry x="460" y="150" width="50" height="90" as="geometry" />
        </mxCell>
        <mxCell id="0gm10YyM9fv4uz2o-prk-41" value="" style="endArrow=classic;html=1;rounded=0;" edge="1" parent="1" source="0gm10YyM9fv4uz2o-prk-2" target="0gm10YyM9fv4uz2o-prk-40">
          <mxGeometry width="50" height="50" relative="1" as="geometry">
            <mxPoint x="370" y="200" as="sourcePoint" />
            <mxPoint x="450" y="210" as="targetPoint" />
          </mxGeometry>
        </mxCell>
        <mxCell id="0gm10YyM9fv4uz2o-prk-42" value="" style="endArrow=classic;html=1;rounded=0;exitX=0.969;exitY=0.588;exitDx=0;exitDy=0;exitPerimeter=0;" edge="1" parent="1" source="0gm10YyM9fv4uz2o-prk-3" target="0gm10YyM9fv4uz2o-prk-40">
          <mxGeometry width="50" height="50" relative="1" as="geometry">
            <mxPoint x="360" y="210" as="sourcePoint" />
            <mxPoint x="473" y="308" as="targetPoint" />
          </mxGeometry>
        </mxCell>
        <mxCell id="0gm10YyM9fv4uz2o-prk-44" value="" style="endArrow=none;html=1;rounded=0;" edge="1" parent="1">
          <mxGeometry width="50" height="50" relative="1" as="geometry">
            <mxPoint x="540" y="640" as="sourcePoint" />
            <mxPoint x="540" y="320" as="targetPoint" />
          </mxGeometry>
        </mxCell>
        <mxCell id="0gm10YyM9fv4uz2o-prk-45" value="" style="endArrow=none;html=1;rounded=0;" edge="1" parent="1">
          <mxGeometry width="50" height="50" relative="1" as="geometry">
            <mxPoint x="20" y="640" as="sourcePoint" />
            <mxPoint x="20" y="320" as="targetPoint" />
          </mxGeometry>
        </mxCell>
        <mxCell id="0gm10YyM9fv4uz2o-prk-46" value="*JOGOS EM PROMOÇÕES*" style="rounded=1;whiteSpace=wrap;html=1;" vertex="1" parent="1">
          <mxGeometry x="220" y="490" width="300" height="125" as="geometry" />
        </mxCell>
        <mxCell id="0gm10YyM9fv4uz2o-prk-47" value="" style="ellipse;whiteSpace=wrap;html=1;aspect=fixed;" vertex="1" parent="1">
          <mxGeometry x="315" y="620" width="10" height="10" as="geometry" />
        </mxCell>
        <mxCell id="0gm10YyM9fv4uz2o-prk-48" value="" style="ellipse;whiteSpace=wrap;html=1;aspect=fixed;" vertex="1" parent="1">
          <mxGeometry x="335" y="620" width="10" height="10" as="geometry" />
        </mxCell>
        <mxCell id="0gm10YyM9fv4uz2o-prk-49" value="" style="ellipse;whiteSpace=wrap;html=1;aspect=fixed;" vertex="1" parent="1">
          <mxGeometry x="355" y="620" width="10" height="10" as="geometry" />
        </mxCell>
        <mxCell id="0gm10YyM9fv4uz2o-prk-52" value="" style="ellipse;whiteSpace=wrap;html=1;aspect=fixed;" vertex="1" parent="1">
          <mxGeometry x="415" y="620" width="10" height="10" as="geometry" />
        </mxCell>
        <mxCell id="0gm10YyM9fv4uz2o-prk-53" value="" style="ellipse;whiteSpace=wrap;html=1;aspect=fixed;" vertex="1" parent="1">
          <mxGeometry x="395" y="620" width="10" height="10" as="geometry" />
        </mxCell>
        <mxCell id="0gm10YyM9fv4uz2o-prk-54" value="" style="ellipse;whiteSpace=wrap;html=1;aspect=fixed;" vertex="1" parent="1">
          <mxGeometry x="375" y="620" width="10" height="10" as="geometry" />
        </mxCell>
        <mxCell id="0gm10YyM9fv4uz2o-prk-58" value="" style="ellipse;whiteSpace=wrap;html=1;aspect=fixed;fillColor=#6666FF;" vertex="1" parent="1">
          <mxGeometry x="317.5" y="622.5" width="5" height="5" as="geometry" />
        </mxCell>
      </root>
    </mxGraphModel>
  </diagram>
</mxfile>
